# xmcd
#
# Track frame offsets:
#	150
#	13414
#	24303
#	38911
#	51655
#	62650
#	76252
#	89227
#	108652
#	123202
#	136381
#	147493
#	158340
#	168518
#	182061
#	194324
#	209647
#	221167
#	236355
#	249977
#	259608
#	272295
#	284783
#
# Disc length: 4055 seconds
#
# Revision: 0
# Processed by: cddbd v1.5.2PL0 Copyright (c) Steve Scherf et al.
# Submitted via: dBpowerAMP V4.0
#
DISCID=5b0fd517
DTITLE=Mike Sanchez - Babes and Buicks
DYEAR=2010
DGENRE=Rock and Roll
TTITLE0=Hip Boots
TTITLE1=The Question (Whatcha Gonna Do)
TTITLE2=Babes and Buicks
TTITLE3=Let's Be Friends
TTITLE4=Driftwood
TTITLE5=Isabella
TTITLE6=Found What I'm Looking For
TTITLE7=It's Time To Rock
TTITLE8=Everybody's Got A Buick
TTITLE9=I'm Wise (Slippin' and Slidin')
TTITLE10=Got You On My Mind
TTITLE11=Crawfish
TTITLE12=Shiver and Shake
TTITLE13=Pretty Legs
TTITLE14=Scream and Howl
TTITLE15=Party Time
TTITLE16=Bonus
TTITLE17=Bonus
TTITLE18=Bonus
TTITLE19=Bonus
TTITLE20=Bonus
TTITLE21=Bonus
TTITLE22=Bonus
EXTD=
EXTT0=
EXTT1=
EXTT2=
EXTT3=
EXTT4=
EXTT5=
EXTT6=
EXTT7=
EXTT8=
EXTT9=
EXTT10=
EXTT11=
EXTT12=
EXTT13=
EXTT14=
EXTT15=
EXTT16=
EXTT17=
EXTT18=
EXTT19=
EXTT20=
EXTT21=
EXTT22=
PLAYORDER=
